<?xml version="1.0" encoding="UTF-8"?>
<svg id="Calque_1" data-name="Calque 1" xmlns="http://www.w3.org/2000/svg" viewBox="0 0 287.41 287.41">
  <defs>
    <style>
      .cls-1 {
        fill: #5489b5;
      }
    </style>
  </defs>
  <g>
    <path class="cls-1" d="m87.57,236.07h18.19v5.92h-25.06v-40.87h6.87v34.95Z"/>
    <path class="cls-1" d="m122.75,242.52c-9.12,0-15.28-5.51-15.28-18.36v-5.21c0-12.85,6.16-18.36,15.28-18.36s15.34,5.51,15.34,18.36v5.21c0,12.85-6.16,18.36-15.34,18.36Zm-8.41-18.36c0,8.83,2.96,12.38,8.41,12.38s8.47-3.55,8.47-12.38v-5.21c0-8.83-3.02-12.38-8.47-12.38s-8.41,3.55-8.41,12.38v5.21Z"/>
    <path class="cls-1" d="m174.11,221.02v3.14c0,12.85-5.86,18.36-15.05,18.36s-15.28-5.51-15.28-18.36v-4.92c0-13.15,6.16-18.66,15.28-18.66,8.29,0,13.56,4.62,14.87,13.21h-6.63c-1.01-4.74-3.61-7.23-8.23-7.23-5.45,0-8.41,3.55-8.41,12.38v5.21c0,8.83,2.96,12.38,8.41,12.38s7.82-3.08,8.29-9.54h-8.11v-5.98h14.87Z"/>
    <path class="cls-1" d="m195.07,242.52c-9.12,0-15.28-5.51-15.28-18.36v-5.21c0-12.85,6.16-18.36,15.28-18.36s15.34,5.51,15.34,18.36v5.21c0,12.85-6.16,18.36-15.34,18.36Zm-8.41-18.36c0,8.83,2.96,12.38,8.41,12.38s8.47-3.55,8.47-12.38v-5.21c0-8.83-3.02-12.38-8.47-12.38s-8.41,3.55-8.41,12.38v5.21Z"/>
  </g>
  <g>
    <rect class="cls-1" x="43.62" y="150.07" width="200.18" height="14.17"/>
    <g>
      <rect class="cls-1" x="210.38" y="129.82" width="52.67" height="14.17" transform="translate(99.81 373.63) rotate(-90)"/>
      <rect class="cls-1" x="24.36" y="129.82" width="52.67" height="14.17" transform="translate(-86.21 187.61) rotate(-90)"/>
    </g>
  </g>
  <g>
    <rect class="cls-1" x="125.41" y="78.24" width="36.79" height="50.43"/>
    <polygon class="cls-1" points="143.81 44.75 91.96 85.26 195.66 85.26 143.81 44.75"/>
  </g>
</svg>